<?xml version="1.0" encoding="UTF-8"?>
<svg width="20px" height="21px" viewBox="0 0 20 21" version="1.1" xmlns="http://www.w3.org/2000/svg" xmlns:xlink="http://www.w3.org/1999/xlink">
    <!-- Generator: Sketch 52.5 (67469) - http://www.bohemiancoding.com/sketch -->
    <title>Icons/calendar</title>
    <desc>Created with Sketch.</desc>
    <g id="Page-1" stroke="none" stroke-width="1" fill="none" fill-rule="evenodd">
        <g id="Webinar-3.3" transform="translate(-631.000000, -400.000000)" fill="#A8B5BF">
            <g id="Group" transform="translate(631.000000, 398.000000)">
                <g id="Icons/calendar" transform="translate(0.000000, 2.000000)">
                    <g id="marked-calendar-64-p">
                        <path d="M17.741432,1.97366264 L15.6998518,1.97366264 L15.6998518,1.01688423 C15.7207605,0.660923759 15.5442409,0.322602543 15.2414273,0.138257976 C14.9386136,-0.0460865906 14.5593897,-0.0460865906 14.256576,0.138257976 C13.9537623,0.322602543 13.7772427,0.660923759 13.7981514,1.01688423 L13.7981514,1.97366264 L6.18468918,1.97366264 L6.18468918,1.01688423 C6.20559792,0.660923759 6.02907834,0.322602543 5.72626465,0.138257976 C5.42345097,-0.0460865906 5.04422706,-0.0460865906 4.74141337,0.138257976 C4.43859969,0.322602543 4.2620801,0.660923759 4.28298885,1.01688423 L4.28298885,1.97366264 L2.24140863,1.97366264 C1.02258412,1.95684199 0.0200790329,2.93733665 1.25459971e-14,4.16586019 L1.25459971e-14,18.96739 C1.23004786e-14,19.6455277 0.6394509,20.1994521 1.42877311,20.1994521 L18.5540675,20.1994521 C19.3433897,20.1994521 19.9828406,19.6455277 19.9828406,18.96739 L19.9828406,4.16586019 C19.9627616,2.93733665 18.9602565,1.95684199 17.741432,1.97366264 Z M14.4509242,12.2632269 L9.40525699,17.0605475 C9.02783647,17.418259 8.43599708,17.4063276 8.07306761,17.0336905 L5.50860307,14.3815679 C5.14072913,14.0024076 5.1474391,13.3944309 5.5235902,13.023614 C5.89974129,12.6527971 6.50289276,12.6595607 6.87076669,13.038721 L8.78245845,15.0160631 L13.1453786,10.8700233 C13.5318873,10.5458755 14.1017783,10.5803666 14.4470328,10.9488025 C14.7922873,11.3172384 14.7939911,11.8927205 14.4509242,12.2632269 Z M1.90170033,4.16586019 C1.93099762,4.00435179 2.07188628,3.88789885 2.23474767,3.89057657 L4.27299742,3.89057657 L4.27299742,4.8507121 C4.30279794,5.35805033 4.71965439,5.75409847 5.22384758,5.75409847 C5.72804078,5.75409847 6.14489723,5.35805033 6.17469775,4.8507121 L6.17469775,3.89393369 L13.7981514,3.89393369 L13.7981514,4.85406923 C13.827952,5.36140746 14.2448084,5.7574556 14.7490016,5.7574556 C15.2531948,5.7574556 15.6700513,5.36140746 15.6998518,4.85406923 L15.6998518,3.89393369 L17.7381015,3.89393369 C17.9009629,3.89125597 18.0418516,4.0077089 18.0711489,4.1692173 L18.0711489,7.73111869 L1.90170033,7.73111869 L1.90170033,4.16586019 Z" id="Shape"></path>
                    </g>
                </g>
            </g>
        </g>
    </g>
</svg>