<?xml version="1.0" encoding="UTF-8"?>
<svg width="14px" height="17px" viewBox="0 0 14 17" version="1.1" xmlns="http://www.w3.org/2000/svg" xmlns:xlink="http://www.w3.org/1999/xlink">
    <!-- Generator: Sketch 52.5 (67469) - http://www.bohemiancoding.com/sketch -->
    <title>lock</title>
    <desc>Created with Sketch.</desc>
    <g id="Page-1" stroke="none" stroke-width="1" fill="none" fill-rule="evenodd">
        <g id="Webinar-3.2-Pop-up" transform="translate(-544.000000, -654.000000)" fill="#A8B5BF">
            <g id="lock" transform="translate(544.000000, 654.000000)">
                <g id="Icons/lock">
                    <path d="M13.1246479,6.59294372 L12.2492767,6.59294372 L12.2492767,5.24321649 C12.2492767,2.34747817 9.89923754,0 7.00001903,0 C4.10080053,0 1.75068524,2.34747817 1.75068524,5.24321649 L1.75068524,6.59294372 L0.875352136,6.59294372 C0.39227912,6.59294372 0,6.98395243 0,7.46726627 L0,16.1256394 C0,16.6090864 0.391346436,17 0.875352136,17 L13.1246479,17 C13.6076828,17 14,16.6091054 14,16.1256394 L14,7.46726627 C13.9991435,6.98397144 13.6076828,6.59294372 13.1246479,6.59294372 Z M10.3478261,6.92592593 L3.65217391,6.92592593 L3.65217391,5.52276191 C3.65217391,3.51553689 5.15160683,1.88888889 7.00001821,1.88888889 C8.84842959,1.88888889 10.3478261,3.51640656 10.3478261,5.52276191 L10.3478261,6.92592593 Z" id="Shape"></path>
                </g>
            </g>
        </g>
    </g>
</svg>