<svg width="24" height="24" xmlns="http://www.w3.org/2000/svg"><path d="M24 2.112v19.776c0 .577-.208 1.071-.624 1.488a2.033 2.033 0 0 1-1.488.624H2.112a2.028 2.028 0 0 1-1.488-.624A2.035 2.035 0 0 1 0 21.888V2.112C0 1.536.209 1.04.624.624A2.03 2.03 0 0 1 2.112 0h19.776c.576 0 1.072.208 1.488.624.416.417.624.912.624 1.488zM7.968 6.36c0-.448-.147-.82-.444-1.116C7.228 4.948 6.84 4.8 6.36 4.8c-.48 0-.873.148-1.174.444a1.492 1.492 0 0 0-.457 1.116c0 .448.147.82.443 1.116.297.297.677.444 1.141.444.51 0 .92-.148 1.224-.444.303-.296.448-.668.431-1.116zM4.8 19.2h3.073V9.144H4.8V19.2zm11.233 0h3.095v-5.928c0-1.424-.327-2.504-.982-3.24-.655-.735-1.513-1.104-2.57-1.104-.75 0-1.388.168-1.907.504-.52.336-.91.713-1.164 1.129h-.048l-.144-1.417H9.648c.047 1.825.072 2.897.072 3.217v6.84h3.072v-5.785c0-.335.032-.6.096-.792.32-.784.847-1.176 1.583-1.176 1.04 0 1.561.729 1.561 2.184V19.2z" fill="#A8B5BF" fill-rule="evenodd"/></svg>