<svg width="24" height="24" xmlns="http://www.w3.org/2000/svg"><path d="M21.6 0H2.4C1.08 0 0 1.08 0 2.4v19.2C0 22.92 1.08 24 2.4 24h19.2c1.32 0 2.4-1.08 2.4-2.4V2.4C24 1.08 22.92 0 21.6 0zm-2.22 8.742c-.062 5.66-3.738 9.598-9.222 9.845-2.243.123-3.925-.616-5.358-1.539 1.682.246 3.738-.369 4.86-1.353-1.62-.185-2.617-.984-3.053-2.338.498.061.997.061 1.433-.062-1.495-.492-2.555-1.415-2.617-3.26.436.184.872.368 1.433.368-1.122-.615-1.932-2.892-.997-4.43 1.62 1.785 3.614 3.262 6.854 3.446-.81-3.445 3.8-5.292 5.732-3.015.81-.184 1.496-.492 2.119-.8-.25.8-.748 1.354-1.371 1.784A5.169 5.169 0 0 0 21 6.896c-.312.738-.997 1.354-1.62 1.846z" fill="#A8B5BF" fill-rule="evenodd"/></svg>